<?xml version="1.0" encoding="UTF-8" standalone="no"?>
<!DOCTYPE svg PUBLIC "-//W3C//DTD SVG 1.1//EN"
 "http://www.w3.org/Graphics/SVG/1.1/DTD/svg11.dtd">
<!-- Generated by graphviz version 7.0.2 (20221119.0110)
 -->
<!-- Pages: 1 -->
<svg width="289pt" height="195pt"
 viewBox="0.00 0.00 289.00 195.20" xmlns="http://www.w3.org/2000/svg" xmlns:xlink="http://www.w3.org/1999/xlink">
<g id="graph0" class="graph" transform="scale(1 1) rotate(0) translate(4 191.2)">
<polygon fill="white" stroke="none" points="-4,4 -4,-191.2 285,-191.2 285,4 -4,4"/>
<!-- 0 -->
<g id="node1" class="node">
<title>0</title>
<ellipse fill="black" stroke="black" cx="146" cy="-185.4" rx="1.8" ry="1.8"/>
</g>
<!-- 1 -->
<g id="node2" class="node">
<title>1</title>
<ellipse fill="black" stroke="black" cx="110" cy="-145.8" rx="1.8" ry="1.8"/>
</g>
<!-- 0&#45;&#45;1 -->
<g id="edge1" class="edge">
<title>0&#45;&#45;1</title>
<path fill="none" stroke="black" d="M145.11,-183.47C140.09,-178.22 115.33,-152.37 110.74,-147.57"/>
</g>
<!-- 6 -->
<g id="node7" class="node">
<title>6</title>
<ellipse fill="black" stroke="black" cx="182" cy="-145.8" rx="1.8" ry="1.8"/>
</g>
<!-- 0&#45;&#45;6 -->
<g id="edge6" class="edge">
<title>0&#45;&#45;6</title>
<path fill="none" stroke="black" d="M146.89,-183.47C151.91,-178.22 176.67,-152.37 181.26,-147.57"/>
</g>
<!-- 2 -->
<g id="node3" class="node">
<title>2</title>
<ellipse fill="black" stroke="black" cx="63" cy="-90" rx="1.8" ry="1.8"/>
</g>
<!-- 1&#45;&#45;2 -->
<g id="edge2" class="edge">
<title>1&#45;&#45;2</title>
<path fill="none" stroke="black" d="M109.04,-143.95C104.69,-140.08 86.5,-123.64 74,-108 69.43,-102.29 65.03,-94.64 63.53,-91.97"/>
</g>
<!-- 5 -->
<g id="node6" class="node">
<title>5</title>
<ellipse fill="none" stroke="black" cx="110" cy="-90" rx="27" ry="18"/>
<text text-anchor="middle" x="110" y="-86.3" font-family="Times,serif" font-size="14.00">2</text>
</g>
<!-- 1&#45;&#45;5 -->
<g id="edge5" class="edge">
<title>1&#45;&#45;5</title>
<path fill="none" stroke="black" d="M110,-143.87C110,-139.65 110,-122.02 110,-108.26"/>
</g>
<!-- 3 -->
<g id="node4" class="node">
<title>3</title>
<ellipse fill="none" stroke="black" cx="27" cy="-18" rx="27" ry="18"/>
<text text-anchor="middle" x="27" y="-14.3" font-family="Times,serif" font-size="14.00">0</text>
</g>
<!-- 2&#45;&#45;3 -->
<g id="edge3" class="edge">
<title>2&#45;&#45;3</title>
<path fill="none" stroke="black" d="M62.49,-88.01C59.6,-82.39 45.06,-54.12 35.51,-35.55"/>
</g>
<!-- 4 -->
<g id="node5" class="node">
<title>4</title>
<ellipse fill="none" stroke="black" cx="99" cy="-18" rx="27" ry="18"/>
<text text-anchor="middle" x="99" y="-14.3" font-family="Times,serif" font-size="14.00">1</text>
</g>
<!-- 2&#45;&#45;4 -->
<g id="edge4" class="edge">
<title>2&#45;&#45;4</title>
<path fill="none" stroke="black" d="M63.51,-88.01C66.4,-82.39 80.94,-54.12 90.49,-35.55"/>
</g>
<!-- 7 -->
<g id="node8" class="node">
<title>7</title>
<ellipse fill="none" stroke="black" cx="182" cy="-90" rx="27" ry="18"/>
<text text-anchor="middle" x="182" y="-86.3" font-family="Times,serif" font-size="14.00">3</text>
</g>
<!-- 6&#45;&#45;7 -->
<g id="edge7" class="edge">
<title>6&#45;&#45;7</title>
<path fill="none" stroke="black" d="M182,-143.87C182,-139.65 182,-122.02 182,-108.26"/>
</g>
<!-- 8 -->
<g id="node9" class="node">
<title>8</title>
<ellipse fill="none" stroke="black" cx="254" cy="-90" rx="27" ry="18"/>
<text text-anchor="middle" x="254" y="-86.3" font-family="Times,serif" font-size="14.00">4</text>
</g>
<!-- 6&#45;&#45;8 -->
<g id="edge8" class="edge">
<title>6&#45;&#45;8</title>
<path fill="none" stroke="black" d="M183.02,-144.04C188.76,-139.75 217.54,-118.25 236.64,-103.97"/>
</g>
</g>
</svg>
